<?xml version="1.0" encoding="utf-8"?>
<!-- Generator: Adobe Illustrator 23.0.1, SVG Export Plug-In . SVG Version: 6.00 Build 0)  -->
<svg version="1.1" id="Layer_1" xmlns="http://www.w3.org/2000/svg" xmlns:xlink="http://www.w3.org/1999/xlink" x="0px" y="0px"
	 width="190px" height="51px" viewBox="0 0 190 51" style="enable-background:new 0 0 190 51;" xml:space="preserve">
<style type="text/css">
	.st0{fill:#FFFFFF;}
</style>
<title>galaxion-logo</title>
<desc>Created with Sketch.</desc>
<g>
	<path class="st0" d="M43.7,12l-9.6-5.6v12.1l-10.5-6.1l10.5-6l-9.6-5.6c-0.8-0.4-2-0.4-2.8,0L2.4,12C1.6,12.5,1,13.6,1,14.4v22.2
		c0,0.9,0.6,2,1.4,2.4l19.2,11.1c0.8,0.4,2,0.4,2.8,0l19.2-11.1c0.8-0.4,1.4-1.5,1.4-2.4V14.4C45.1,13.6,44.5,12.5,43.7,12z
		 M21.9,25.5L12,31.2V19.8L21.9,25.5z M12,31.9L12,31.9L12,31.9L12,31.9z M22.5,26.5v10.7l-9.3-5.4L22.5,26.5z M34.1,31.2l-9.9-5.7
		l9.9-5.7V31.2z M34.1,19.1L34.1,19.1L34.1,19.1L34.1,19.1z M23.6,24.5V13.9l9.2,5.3L23.6,24.5z M22.5,13.1v11.4l-9.9-5.7L22.5,13.1
		z M12,44.6v-12l10.4,6L12,44.6z M23.6,37.9V26.5l9.9,5.7L23.6,37.9z"/>
	<polygon class="st0" points="12,31.9 12,31.9 12,31.9 	"/>
	<polygon class="st0" points="34.1,19.1 34,19.1 34.1,19.2 	"/>
</g>
<path class="st0" d="M73,30.5c0,1.7-0.6,3.1-1.8,4.3c-1.2,1.2-2.6,1.8-4.3,1.8h-3.1c-1.7,0-3.1-0.6-4.3-1.8
	c-1.2-1.2-1.8-2.6-1.8-4.3v-9.2c0-1.7,0.6-3.1,1.8-4.3c1.2-1.2,2.6-1.8,4.3-1.8h3.1c1.7,0,3.1,0.6,4.3,1.8c1.2,1.2,1.8,2.6,1.8,4.3
	h-3.1c0-0.8-0.3-1.6-0.9-2.2s-1.3-0.9-2.2-0.9h-3.1c-0.8,0-1.6,0.3-2.2,0.9c-0.6,0.6-0.9,1.3-0.9,2.2v9.2c0,0.8,0.3,1.6,0.9,2.2
	c0.6,0.6,1.3,0.9,2.2,0.9h3.1c0.8,0,1.6-0.3,2.2-0.9c0.6-0.6,0.9-1.3,0.9-2.2v-3.1h-3.1v-3.1H73V30.5z"/>
<path class="st0" d="M91.6,21.3v15.3h-3.1v-4.2l-1.9,1.9c-1.5,1.5-2.9,2.3-4.2,2.3c-1.7,0-3.1-0.6-4.3-1.8c-1.2-1.2-1.8-2.6-1.8-4.3
	v-3.1c0-1.7,0.6-3.1,1.8-4.3c1.2-1.2,2.6-1.8,4.3-1.8H91.6z M82.4,24.4c-0.8,0-1.6,0.3-2.2,0.9c-0.6,0.6-0.9,1.3-0.9,2.2v3.1
	c0,0.8,0.3,1.6,0.9,2.2c0.6,0.6,1.3,0.9,2.2,0.9c1,0,2-0.5,3.1-1.5l3.1-3.1v-4.6H82.4z"/>
<path class="st0" d="M104.1,36.6h-9.2v-3.1H98V18.2h-3.1v-3.1h6.1v18.4h3.1V36.6z"/>
<path class="st0" d="M121.8,21.3v15.3h-3.1v-4.2l-1.9,1.9c-1.5,1.5-2.9,2.3-4.2,2.3c-1.7,0-3.1-0.6-4.3-1.8
	c-1.2-1.2-1.8-2.6-1.8-4.3v-3.1c0-1.7,0.6-3.1,1.8-4.3c1.2-1.2,2.6-1.8,4.3-1.8H121.8z M112.6,24.4c-0.8,0-1.6,0.3-2.2,0.9
	c-0.6,0.6-0.9,1.3-0.9,2.2v3.1c0,0.8,0.3,1.6,0.9,2.2c0.6,0.6,1.3,0.9,2.2,0.9c1,0,2-0.5,3.1-1.5l3.1-3.1v-4.6H112.6z"/>
<path class="st0" d="M140.4,36.6h-3.1v-0.9l-4.6-4.6l-4.6,4.6v0.9h-3.1v-2.1l5.5-5.5l-5.5-5.5v-2.1h3.1l0,1l4.6,4.6l4.6-4.6l0-1h3.1
	v2.1l-5.5,5.5l5.5,5.5V36.6z"/>
<path class="st0" d="M153,36.6h-9.2v-3.1h3.1v-9.2h-3.1v-3.1h6.1v12.2h3.1V36.6z"/>
<path class="st0" d="M170.8,30.5c0,1.7-0.6,3.1-1.8,4.3c-1.2,1.2-2.6,1.8-4.3,1.8h-3.1c-1.7,0-3.1-0.6-4.3-1.8
	c-1.2-1.2-1.8-2.6-1.8-4.3v-3.1c0-1.7,0.6-3.1,1.8-4.3c1.2-1.2,2.6-1.8,4.3-1.8h3.1c1.7,0,3.1,0.6,4.3,1.8c1.2,1.2,1.8,2.6,1.8,4.3
	V30.5z M167.8,30.5v-3.1c0-0.8-0.3-1.6-0.9-2.2c-0.6-0.6-1.3-0.9-2.2-0.9h-3.1c-0.8,0-1.6,0.3-2.2,0.9c-0.6,0.6-0.9,1.3-0.9,2.2v3.1
	c0,0.8,0.3,1.6,0.9,2.2c0.6,0.6,1.3,0.9,2.2,0.9h3.1c0.8,0,1.6-0.3,2.2-0.9C167.5,32,167.8,31.3,167.8,30.5z"/>
<path class="st0" d="M176.8,21.3v4.2l1.9-1.9c1.5-1.5,2.9-2.3,4.2-2.3c1.7,0,3.1,0.6,4.3,1.8c1.2,1.2,1.8,2.6,1.8,4.3v9.2H186v-9.2
	c0-0.8-0.3-1.6-0.9-2.2c-0.6-0.6-1.3-0.9-2.2-0.9c-1,0-2,0.5-3.1,1.5l-3.1,3.1v7.6h-3.1V21.3H176.8z"/>
<path class="st0" d="M149.9,16.4c0,0.5-0.2,1-0.5,1.3c-0.4,0.4-0.8,0.5-1.3,0.5c-0.5,0-1-0.2-1.3-0.5c-0.4-0.4-0.5-0.8-0.5-1.3
	c0-0.5,0.2-1,0.5-1.3c0.4-0.4,0.8-0.5,1.3-0.5c0.5,0,1,0.2,1.3,0.5C149.7,15.4,149.9,15.8,149.9,16.4z"/>
</svg>
