<svg version="1.1" id="Layer_1" xmlns="http://www.w3.org/2000/svg" x="0" y="0" width="190" height="51" xml:space="preserve"><style>.st0{fill:#fff}</style><path class="st0" d="M46.7 26.2c0-1 .2-2 .6-3 .4-1 .9-1.9 1.6-2.7.7-.8 1.6-1.4 2.6-1.9s2.2-.7 3.5-.7c1.5 0 2.9.3 4 1s2 1.6 2.5 2.6L59 23.2c-.2-.5-.5-.9-.8-1.2-.3-.3-.7-.6-1-.8-.4-.2-.7-.3-1.1-.4-.4-.1-.8-.1-1.2-.1-.8 0-1.5.2-2.1.5s-1.1.8-1.5 1.3-.7 1.1-.9 1.8c-.2.7-.3 1.3-.3 2s.1 1.4.4 2.1c.2.7.6 1.3 1 1.8s.9.9 1.6 1.2c.6.3 1.3.5 2 .5.4 0 .8 0 1.2-.1s.8-.2 1.2-.4c.4-.2.7-.5 1-.8s.6-.7.8-1.2l2.7 1.5c-.3.6-.6 1.2-1.1 1.7s-1 .9-1.7 1.2c-.6.3-1.3.6-2 .8s-1.4.3-2.1.3c-1.2 0-2.3-.3-3.3-.8s-1.8-1.2-2.6-2c-.7-.8-1.3-1.7-1.7-2.7-.6-1.1-.8-2.1-.8-3.2zM77.9 18v16.7h-3.2v-7.1h-7.6v7.1h-3.2V18h3.2v6.7h7.6V18h3.2zM86.1 18H89l6.3 16.7H92l-1.6-4.2h-5.8L83 34.7h-3.3L86.1 18zm3.7 10.2l-2.3-6.6-2.4 6.6h4.7zM97.1 34.7V18h3.2v16.7h-3.2zM106 24v10.7h-3.2V18h2.5l8.7 11V18h3.2v16.7h-2.6L106 24zM130.7 22.4c-.1-.1-.3-.3-.6-.4-.3-.2-.6-.4-1.1-.6-.4-.2-.9-.3-1.4-.5-.5-.1-1-.2-1.5-.2-.9 0-1.6.2-2 .5s-.7.8-.7 1.4c0 .3.1.6.2.9.2.2.4.4.7.6.3.2.7.3 1.2.5.5.1 1 .3 1.7.4.8.2 1.6.5 2.2.7.7.3 1.2.6 1.7.9.5.4.8.8 1.1 1.4.3.5.4 1.2.4 1.9 0 .9-.2 1.7-.5 2.3s-.8 1.1-1.4 1.5c-.6.4-1.2.7-2 .9-.7.2-1.5.3-2.3.3-1.3 0-2.5-.2-3.7-.6s-2.3-.9-3.3-1.6l1.4-2.8c.1.1.4.3.8.6.4.2.8.5 1.3.7s1.1.4 1.7.6c.6.2 1.2.2 1.9.2 1.8 0 2.7-.6 2.7-1.7 0-.4-.1-.7-.3-.9-.2-.3-.5-.5-.9-.7s-.8-.4-1.4-.5c-.5-.2-1.1-.3-1.8-.5-.8-.2-1.5-.5-2.1-.7-.6-.3-1.1-.6-1.5-.9-.4-.4-.7-.8-.9-1.2-.2-.5-.3-1-.3-1.7 0-.8.2-1.6.5-2.3.3-.7.7-1.2 1.3-1.6.6-.4 1.2-.8 1.9-1 .7-.2 1.5-.3 2.4-.3 1.2 0 2.3.2 3.2.6s1.8.8 2.6 1.3l-1.2 2.5zM134.6 34.7V18h7.1c.8 0 1.5.2 2.1.5s1.2.7 1.7 1.3c.5.5.8 1.1 1.1 1.8.3.7.4 1.3.4 2s-.1 1.4-.4 2.1c-.3.7-.6 1.3-1.1 1.8s-1 .9-1.6 1.2c-.6.3-1.3.5-2.1.5h-3.9v5.6l-3.3-.1zm3.2-8.5h3.8c.6 0 1.1-.2 1.5-.7s.6-1.1.6-2c0-.4-.1-.8-.2-1.1-.1-.3-.3-.6-.5-.9-.2-.2-.4-.4-.7-.5s-.6-.2-.8-.2h-3.6v5.4h-.1zM152.4 18h2.9l6.3 16.7h-3.3l-1.6-4.2h-5.8l-1.5 4.2H146l6.4-16.7zm3.7 10.2l-2.3-6.6-2.4 6.6h4.7zM161.3 26.2c0-1 .2-2 .6-3 .4-1 .9-1.9 1.6-2.7.7-.8 1.6-1.4 2.6-1.9s2.2-.7 3.5-.7c1.5 0 2.9.3 4 1s2 1.6 2.5 2.6l-2.5 1.7c-.2-.5-.5-.9-.8-1.2-.3-.3-.7-.6-1-.8-.4-.2-.7-.3-1.1-.4-.4-.1-.8-.1-1.2-.1-.8 0-1.5.2-2.1.5s-1.1.8-1.5 1.3-.7 1.1-.9 1.8c-.2.7-.3 1.3-.3 2s.1 1.4.4 2.1c.2.7.6 1.3 1 1.8s.9.9 1.6 1.2c.6.3 1.3.5 2 .5.4 0 .8 0 1.2-.1s.8-.2 1.2-.4c.4-.2.7-.5 1-.8s.6-.7.8-1.2l2.7 1.5c-.3.6-.6 1.2-1.1 1.7s-1.1.9-1.7 1.2c-.6.3-1.3.6-2 .8s-1.4.3-2.1.3c-1.2 0-2.3-.3-3.3-.8s-1.8-1.2-2.5-2-1.3-1.7-1.7-2.7c-.7-1.1-.9-2.1-.9-3.2zM190 31.8v2.8h-11.6V18h11.4v2.8h-8.1v4h7v2.6h-7v4.3l8.3.1zM19.4 48h-.3v1.8l.3.2.3-.1V48h-.3zM19.2 44.7V32.1c-1-.1-2-.4-2.7-1.1l-3.6 3.8 5.9 10c.1 0 .3 0 .4-.1zM34.8 35.6c0 .2 0 .3-.1.5l4.1 2v-6.5l-4.2 3.3c.2.2.2.5.2.7zM34 24.5l-3.4.9L33 34h.2l1.7-8.6c-.4-.2-.8-.5-.9-.9zM24 27.2v.3c0 1.1-.4 2-1 2.8l8.8 4.4c.2-.2.4-.4.6-.5L30 25.6l-6 1.6zM30.5 24.9l3.4-.9v-.2c0-.3.1-.6.2-.8l-4.6-3.7c-.1.1-.3.2-.4.3l1.4 5.3zM29.2 16.8l3.7-3.9-5.5-3.2.9 6.8c.4 0 .7.1.9.3zM15 26.3c.4-1.3 1.3-2.4 2.5-3l-1.2-3.2-10.2 1.4c0 .1 0 .2-.1.3l9 4.5zM26.9 17.3c.2-.4.5-.6.9-.7l-1-7.2-7.1-4.1v9.4l7.2 2.6zM29.6 17.2c.2.3.3.6.3 1 0 .3-.1.6-.2.8l4.6 3.7c.3-.3.7-.4 1.1-.4.7 0 1.2.4 1.5 1l1.9-.5v-6.3l-5.5-3.1-3.7 3.8zM37.1 23.8c0 .9-.7 1.6-1.6 1.6L33.8 34c.2.1.4.2.6.4l4.5-3.5v-7.8l-1.8.5v.2zM19.7 32.1v12.6c.3.1.6.2.9.4l4.1-3.2-3.8-10.1c-.4.2-.8.3-1.2.3zM12.5 35.2l-2.7 2.9 8.5 7-5.8-9.9zM26.7 18.1v-.3l-7-2.7v4l7-1zM28.5 19.8h-.2c-.3 0-.7-.1-.9-.3l-4.6 4.9c.6.6 1 1.4 1.2 2.3l6-1.6-1.5-5.3zM10 31l-5.6 1.5v.2c0 .3-.1.6-.2.8l5.2 4.3 2.9-3L10 31zM31.6 35.2l-8.9-4.4c-.4.4-.9.7-1.4 1l3.8 9.9 6.7-5.2c-.1-.2-.2-.5-.2-.8-.1-.2 0-.4 0-.5zM15.1 12.4v.3l4.1 1.6V5.2l-2.6 1.5-2.2 4.3c.4.4.7.9.7 1.4zM14.5 13.7l2.2 5.8 2.5-.4v-4.2l-4.3-1.7c-.2.2-.3.4-.4.5zM16.1 19.6L14 14c-.2.1-.4.1-.6.1-.4 0-.7-.1-.9-.3l-6.7 6.5c.2.2.3.5.3.8l10-1.5zM13.4 10.8c.2 0 .3 0 .5.1l1.8-3.6-3 1.7.7 1.8zM4.3 32l5.4-1.5-4.6-7.7c-.2.1-.4.2-.7.2h-.1l-1.1 8.2c.6 0 .9.4 1.1.8zM19.7 22.9c1 .1 2 .4 2.7 1.1l4.6-4.9c-.1-.1-.2-.3-.3-.5l-7 1v3.3zM16.1 30.7c-.3-.3-.6-.7-.8-1.1l-4.8 1.3 2.1 3.5 3.5-3.7zM2.8 21.3c0-.1 0-.3.1-.4L0 19.4v5.7l3.1-3c-.2-.2-.3-.5-.3-.8zM15.1 29.1c-.2-.5-.3-1-.3-1.5 0-.2 0-.5.1-.7l-9.1-4.5c0 .1-.1.1-.1.2l4.7 7.9 4.7-1.4zM3.9 33.9c-.3.3-.7.4-1.1.4-.7 0-1.2-.4-1.5-1l-1.3.4v5l5.5 3.2L9 38.1l-5.1-4.2zM12.8 10.9l-.6-1.6-2.5 1.4 2.3.9c.2-.3.5-.6.8-.7zM1.2 32.7c0-.9.7-1.6 1.6-1.6l1.1-8.2c-.2-.1-.3-.2-.4-.3L0 25.8v7.3l1.2-.3v-.1z"/><path class="st0" d="M20.9 45.6c.1.2.2.5.2.8 0 .8-.6 1.5-1.4 1.6v1.8l6.5-3.8-1.4-3.5-3.9 3.1zM18.1 23.1c.4-.1.7-.2 1.1-.2v-3.2l-2.3.3 1.2 3.1zM4.5 19.6c.3 0 .6.1.9.3l6.7-6.5c-.2-.3-.3-.6-.3-1v-.3L9.1 11 0 16.3v2.6l3.1 1.5c.3-.5.8-.8 1.4-.8zM33.2 37.3c-.4 0-.8-.2-1.1-.4l-6.8 5.3 1.4 3.6 12.2-7-4.3-2.2c-.4.4-.9.7-1.4.7zM17.8 46.4c0-.3.1-.6.2-.8l-8.6-7.1-3.5 3.7 13.2 7.6V48c-.7-.1-1.3-.8-1.3-1.6z"/></svg>