<?xml version="1.0" encoding="utf-8"?>
<!-- Generator: Adobe Illustrator 23.0.1, SVG Export Plug-In . SVG Version: 6.00 Build 0)  -->
<svg version="1.1" id="Layer_1" xmlns="http://www.w3.org/2000/svg" xmlns:xlink="http://www.w3.org/1999/xlink" x="0px" y="0px"
	 width="272.3px" height="133.1px" viewBox="0 0 272.3 133.1" style="enable-background:new 0 0 272.3 133.1;" xml:space="preserve"
	>
<style type="text/css">
	.st0{fill:#FFFFFF;}
</style>
<title>galaxion-logo</title>
<desc>Created with Sketch.</desc>
<g>
	<path class="st0" d="M84.9,55.4l-9.6-5.6v12.1l-10.5-6.1l10.5-6l-9.6-5.6c-0.8-0.4-2-0.4-2.8,0L43.6,55.4c-0.8,0.4-1.4,1.5-1.4,2.4
		V80c0,0.9,0.6,2,1.4,2.4l19.2,11.1c0.8,0.4,2,0.4,2.8,0l19.2-11.1c0.8-0.4,1.4-1.5,1.4-2.4V57.8C86.3,56.9,85.7,55.8,84.9,55.4z
		 M63.1,68.9l-9.9,5.7V63.2L63.1,68.9z M53.2,75.2L53.2,75.2L53.2,75.2L53.2,75.2z M63.7,69.9v10.7l-9.3-5.4L63.7,69.9z M75.3,74.5
		l-9.9-5.7l9.9-5.7V74.5z M75.3,62.4L75.3,62.4L75.3,62.4L75.3,62.4z M64.8,67.9V57.2l9.2,5.3L64.8,67.9z M63.7,56.5v11.4l-9.9-5.7
		L63.7,56.5z M53.2,87.9v-12l10.4,6L53.2,87.9z M64.8,81.2V69.9l9.9,5.7L64.8,81.2z"/>
	<polygon class="st0" points="53.2,75.2 53.2,75.2 53.2,75.2 	"/>
	<polygon class="st0" points="75.3,62.4 75.3,62.5 75.3,62.5 	"/>
</g>
<path class="st0" d="M114.2,73.8c0,1.7-0.6,3.1-1.8,4.3c-1.2,1.2-2.6,1.8-4.3,1.8H105c-1.7,0-3.1-0.6-4.3-1.8
	c-1.2-1.2-1.8-2.6-1.8-4.3v-9.2c0-1.7,0.6-3.1,1.8-4.3c1.2-1.2,2.6-1.8,4.3-1.8h3.1c1.7,0,3.1,0.6,4.3,1.8c1.2,1.2,1.8,2.6,1.8,4.3
	h-3.1c0-0.8-0.3-1.6-0.9-2.2c-0.6-0.6-1.3-0.9-2.2-0.9H105c-0.8,0-1.6,0.3-2.2,0.9c-0.6,0.6-0.9,1.3-0.9,2.2v9.2
	c0,0.8,0.3,1.6,0.9,2.2c0.6,0.6,1.3,0.9,2.2,0.9h3.1c0.8,0,1.6-0.3,2.2-0.9c0.6-0.6,0.9-1.3,0.9-2.2v-3.1h-3.1v-3.1h6.1V73.8z"/>
<path class="st0" d="M132.8,64.7v15.3h-3.1v-4.2l-1.9,1.9c-1.5,1.5-2.9,2.3-4.2,2.3c-1.7,0-3.1-0.6-4.3-1.8
	c-1.2-1.2-1.8-2.6-1.8-4.3v-3.1c0-1.7,0.6-3.1,1.8-4.3c1.2-1.2,2.6-1.8,4.3-1.8H132.8z M123.6,67.7c-0.8,0-1.6,0.3-2.2,0.9
	c-0.6,0.6-0.9,1.3-0.9,2.2v3.1c0,0.8,0.3,1.6,0.9,2.2c0.6,0.6,1.3,0.9,2.2,0.9c1,0,2-0.5,3.1-1.5l3.1-3.1v-4.6H123.6z"/>
<path class="st0" d="M145.3,79.9h-9.2v-3.1h3.1V61.6h-3.1v-3.1h6.1v18.4h3.1V79.9z"/>
<path class="st0" d="M163,64.7v15.3H160v-4.2l-1.9,1.9c-1.5,1.5-2.9,2.3-4.2,2.3c-1.7,0-3.1-0.6-4.3-1.8c-1.2-1.2-1.8-2.6-1.8-4.3
	v-3.1c0-1.7,0.6-3.1,1.8-4.3c1.2-1.2,2.6-1.8,4.3-1.8H163z M153.8,67.7c-0.8,0-1.6,0.3-2.2,0.9c-0.6,0.6-0.9,1.3-0.9,2.2v3.1
	c0,0.8,0.3,1.6,0.9,2.2c0.6,0.6,1.3,0.9,2.2,0.9c1,0,2-0.5,3.1-1.5l3.1-3.1v-4.6H153.8z"/>
<path class="st0" d="M181.7,79.9h-3.1V79l-4.6-4.6l-4.6,4.6v0.9h-3.1v-2.1l5.5-5.5l-5.5-5.5v-2.1h3.1l0,1l4.6,4.6l4.6-4.6l0-1h3.1
	v2.1l-5.5,5.5l5.5,5.5V79.9z"/>
<path class="st0" d="M194.2,79.9H185v-3.1h3.1v-9.2H185v-3.1h6.1v12.2h3.1V79.9z"/>
<path class="st0" d="M212,73.8c0,1.7-0.6,3.1-1.8,4.3c-1.2,1.2-2.6,1.8-4.3,1.8h-3.1c-1.7,0-3.1-0.6-4.3-1.8
	c-1.2-1.2-1.8-2.6-1.8-4.3v-3.1c0-1.7,0.6-3.1,1.8-4.3c1.2-1.2,2.6-1.8,4.3-1.8h3.1c1.7,0,3.1,0.6,4.3,1.8c1.2,1.2,1.8,2.6,1.8,4.3
	V73.8z M209,73.8v-3.1c0-0.8-0.3-1.6-0.9-2.2s-1.3-0.9-2.2-0.9h-3.1c-0.8,0-1.6,0.3-2.2,0.9c-0.6,0.6-0.9,1.3-0.9,2.2v3.1
	c0,0.8,0.3,1.6,0.9,2.2c0.6,0.6,1.3,0.9,2.2,0.9h3.1c0.8,0,1.6-0.3,2.2-0.9C208.7,75.4,209,74.7,209,73.8z"/>
<path class="st0" d="M218.1,64.7v4.2L220,67c1.5-1.5,2.9-2.3,4.2-2.3c1.7,0,3.1,0.6,4.3,1.8c1.2,1.2,1.8,2.6,1.8,4.3v9.2h-3.1v-9.2
	c0-0.8-0.3-1.6-0.9-2.2c-0.6-0.6-1.3-0.9-2.2-0.9c-1,0-2,0.5-3.1,1.5l-3.1,3.1v7.6H215V64.7H218.1z"/>
<path class="st0" d="M191.1,59.7c0,0.5-0.2,1-0.5,1.3c-0.4,0.4-0.8,0.5-1.3,0.5c-0.5,0-1-0.2-1.3-0.5c-0.4-0.4-0.5-0.8-0.5-1.3
	c0-0.5,0.2-1,0.5-1.3c0.4-0.4,0.8-0.5,1.3-0.5c0.5,0,1,0.2,1.3,0.5C190.9,58.8,191.1,59.2,191.1,59.7z"/>
</svg>
